<mxfile host="app.diagrams.net" agent="Mozilla/5.0 (Windows NT 10.0; Win64; x64) AppleWebKit/537.36 (KHTML, like Gecko) Chrome/130.0.0.0 Safari/537.36" version="24.8.6">
  <diagram id="R2lEEEUBdFMjLlhIrx00" name="Page-1">
    <mxGraphModel dx="989" dy="509" grid="1" gridSize="10" guides="1" tooltips="1" connect="1" arrows="1" fold="1" page="1" pageScale="1" pageWidth="850" pageHeight="1100" math="0" shadow="0" extFonts="Permanent Marker^https://fonts.googleapis.com/css?family=Permanent+Marker">
      <root>
        <mxCell id="0" />
        <mxCell id="1" parent="0" />
        <mxCell id="C-vyLk0tnHw3VtMMgP7b-2" value="QRCODE" style="shape=table;startSize=30;container=1;collapsible=1;childLayout=tableLayout;fixedRows=1;rowLines=0;fontStyle=1;align=center;resizeLast=1;" parent="1" vertex="1">
          <mxGeometry x="80" y="401" width="180" height="149" as="geometry" />
        </mxCell>
        <mxCell id="C-vyLk0tnHw3VtMMgP7b-3" value="" style="shape=partialRectangle;collapsible=0;dropTarget=0;pointerEvents=0;fillColor=none;points=[[0,0.5],[1,0.5]];portConstraint=eastwest;top=0;left=0;right=0;bottom=1;" parent="C-vyLk0tnHw3VtMMgP7b-2" vertex="1">
          <mxGeometry y="30" width="180" height="30" as="geometry" />
        </mxCell>
        <mxCell id="C-vyLk0tnHw3VtMMgP7b-4" value="PK" style="shape=partialRectangle;overflow=hidden;connectable=0;fillColor=none;top=0;left=0;bottom=0;right=0;fontStyle=1;" parent="C-vyLk0tnHw3VtMMgP7b-3" vertex="1">
          <mxGeometry width="30" height="30" as="geometry">
            <mxRectangle width="30" height="30" as="alternateBounds" />
          </mxGeometry>
        </mxCell>
        <mxCell id="C-vyLk0tnHw3VtMMgP7b-5" value="QRCODE_IDÂ " style="shape=partialRectangle;overflow=hidden;connectable=0;fillColor=none;top=0;left=0;bottom=0;right=0;align=left;spacingLeft=6;fontStyle=5;" parent="C-vyLk0tnHw3VtMMgP7b-3" vertex="1">
          <mxGeometry x="30" width="150" height="30" as="geometry">
            <mxRectangle width="150" height="30" as="alternateBounds" />
          </mxGeometry>
        </mxCell>
        <mxCell id="C-vyLk0tnHw3VtMMgP7b-6" value="" style="shape=partialRectangle;collapsible=0;dropTarget=0;pointerEvents=0;fillColor=none;points=[[0,0.5],[1,0.5]];portConstraint=eastwest;top=0;left=0;right=0;bottom=0;" parent="C-vyLk0tnHw3VtMMgP7b-2" vertex="1">
          <mxGeometry y="60" width="180" height="79" as="geometry" />
        </mxCell>
        <mxCell id="C-vyLk0tnHw3VtMMgP7b-7" value="FK" style="shape=partialRectangle;overflow=hidden;connectable=0;fillColor=none;top=0;left=0;bottom=0;right=0;verticalAlign=top;" parent="C-vyLk0tnHw3VtMMgP7b-6" vertex="1">
          <mxGeometry width="30" height="79" as="geometry">
            <mxRectangle width="30" height="79" as="alternateBounds" />
          </mxGeometry>
        </mxCell>
        <mxCell id="C-vyLk0tnHw3VtMMgP7b-8" value="USER_IDX&#xa;&#xa;SCAN_URL&#xa;&#xa;SCAN_DATE" style="shape=partialRectangle;overflow=hidden;connectable=0;fillColor=none;top=0;left=0;bottom=0;right=0;align=left;spacingLeft=6;" parent="C-vyLk0tnHw3VtMMgP7b-6" vertex="1">
          <mxGeometry x="30" width="150" height="79" as="geometry">
            <mxRectangle width="150" height="79" as="alternateBounds" />
          </mxGeometry>
        </mxCell>
        <mxCell id="C-vyLk0tnHw3VtMMgP7b-23" value="USER" style="shape=table;startSize=30;container=1;collapsible=1;childLayout=tableLayout;fixedRows=1;rowLines=0;fontStyle=1;align=center;resizeLast=1;" parent="1" vertex="1">
          <mxGeometry x="80" y="60" width="180" height="280" as="geometry" />
        </mxCell>
        <mxCell id="C-vyLk0tnHw3VtMMgP7b-24" value="" style="shape=partialRectangle;collapsible=0;dropTarget=0;pointerEvents=0;fillColor=none;points=[[0,0.5],[1,0.5]];portConstraint=eastwest;top=0;left=0;right=0;bottom=1;" parent="C-vyLk0tnHw3VtMMgP7b-23" vertex="1">
          <mxGeometry y="30" width="180" height="30" as="geometry" />
        </mxCell>
        <mxCell id="C-vyLk0tnHw3VtMMgP7b-25" value="PK" style="shape=partialRectangle;overflow=hidden;connectable=0;fillColor=none;top=0;left=0;bottom=0;right=0;fontStyle=1;" parent="C-vyLk0tnHw3VtMMgP7b-24" vertex="1">
          <mxGeometry width="30" height="30" as="geometry">
            <mxRectangle width="30" height="30" as="alternateBounds" />
          </mxGeometry>
        </mxCell>
        <mxCell id="C-vyLk0tnHw3VtMMgP7b-26" value="USER_IDX" style="shape=partialRectangle;overflow=hidden;connectable=0;fillColor=none;top=0;left=0;bottom=0;right=0;align=left;spacingLeft=6;fontStyle=5;" parent="C-vyLk0tnHw3VtMMgP7b-24" vertex="1">
          <mxGeometry x="30" width="150" height="30" as="geometry">
            <mxRectangle width="150" height="30" as="alternateBounds" />
          </mxGeometry>
        </mxCell>
        <mxCell id="C-vyLk0tnHw3VtMMgP7b-27" value="" style="shape=partialRectangle;collapsible=0;dropTarget=0;pointerEvents=0;fillColor=none;points=[[0,0.5],[1,0.5]];portConstraint=eastwest;top=0;left=0;right=0;bottom=0;" parent="C-vyLk0tnHw3VtMMgP7b-23" vertex="1">
          <mxGeometry y="60" width="180" height="210" as="geometry" />
        </mxCell>
        <mxCell id="C-vyLk0tnHw3VtMMgP7b-28" value="&#xa;&#xa;UK&#xa;&#xa;UK" style="shape=partialRectangle;overflow=hidden;connectable=0;fillColor=none;top=0;left=0;bottom=0;right=0;verticalAlign=top;" parent="C-vyLk0tnHw3VtMMgP7b-27" vertex="1">
          <mxGeometry width="30" height="210" as="geometry">
            <mxRectangle width="30" height="210" as="alternateBounds" />
          </mxGeometry>
        </mxCell>
        <mxCell id="C-vyLk0tnHw3VtMMgP7b-29" value="USER_NAME&#xa;&#xa;USER_ID&#xa;&#xa;EMAIL&#xa;&#xa;USER_PW&#xa;&#xa;JOIN_DATE&#xa;&#xa;PHONE&#xa;&#xa;TEMP_PASSWORD_EX&#xa;PIRES" style="shape=partialRectangle;overflow=hidden;connectable=0;fillColor=none;top=0;left=0;bottom=0;right=0;align=left;spacingLeft=6;" parent="C-vyLk0tnHw3VtMMgP7b-27" vertex="1">
          <mxGeometry x="30" width="150" height="210" as="geometry">
            <mxRectangle width="150" height="210" as="alternateBounds" />
          </mxGeometry>
        </mxCell>
        <mxCell id="dSVtmwzIWPI7p82l80rs-2" value="" style="shape=image;verticalLabelPosition=bottom;labelBackgroundColor=default;verticalAlign=top;aspect=fixed;imageAspect=0;image=data:image/png,iVBORw0KGgoAAAANSUhEUgAAAUMAAAE4CAYAAADB1pEFAAAAAXNSR0IArs4c6QAAAARnQU1BAACxjwv8YQUAAAAJcEhZcwAADsMAAA7DAcdvqGQAADxdSURBVHhe7Z0JtBzFdb/LcTCJA0gCg/YFBQSyBEIYGwSxERYGI8AIwiZWswkDAbNEYAQWyEJsAgw5bEFBDksEAhuDWCQ2kRNsHDYbxKIYsPZd0YLAseM4nn999e8hw7zq7tszNdM98+53Tp0302+6urqW29Xdv1v3MyWLURRF6eT8WfRXURSlU6PGUFEUxaLGUFEUxaLGUFEUxaLGUFEUxaLGUFEUxaLGUFEUxaLGUFEUxaKi6zbid7/7XfSpI5/97GfN5z73uehbWH7/+9+bpG70l3/5l9EnGUnn8ZnPfMb8xV/8RfQtH/7whz+Y//3f/42+1U7WelEaDMawFthVU8eUFxdddFHp85//fGzq3r176Zprrol+HQ7y7NKli/eY5TRhwoTSn/70p2iPePgNv/XlUU4cqxHnIeXAAw8s9ejRw1u2rGnKlClRrun4+pqmsONNjWHglAd2plLq06ePtzyVaciQISU7i4v2qh87g3N5+o5Vmfr27Vv66KOPor3i4Tf81pdHZeKYHLvZbNq0qbT55pt7y1RL2mmnnUq//e1vo9yT8e2vKex402eGbYBtR2MNSfQtnmXLlkWfwiHJ8z//8z+jT+lIftuI88iDFStWRJ+UIqDGsA3AGNpbzOhbPCGec1Xzxz/+MfoUD2WjjGlIz0NyzFagXc6jXVBjqCiKYlFjqCiKYlFjqCiKYlFjqNSM5DmgorQKagyVmvn4449FBpEXN5K33fymES95QrF8+XLRCx4pPXr0iD4pRUCNoRLLf//3f8emtWvXmvnz54vf/r777rvOmPjyIvE/ftOIN6y+42VJGH3Kd//992cy1ptvvrk3bbHFFmbbbbc1Y8eOjX6pFIGa3fFwi5LQLrdSRT5fBiyDK232xSBEx8eATOPqq682Dz74oFm8eHGiwcNQSMD1DJfAJDA0Sa54Zf7qr/7KnYfELW/q1KnmnnvuccasXkMrPVfq9+KLLzZnn322K+Of//mfR//5NLSHFB1vfkKerxpDIZ3JGOJr3Lt3b7N+/fpoS7GQGkPqhfNYt25dtKU5fP7zn3fC8G7dukVb6kfHm5+Q56u3yUoHmAlKZmhFJ6/zYCDrIgythxpDRVEUixpDRVEUixpDRVEUixpDRVEUixrDTsb//M//RJ8URalEjWEnY9OmTdEnRVEqUWOYI2UPh7gUGkTD06ZNM0uXLvUeDxnK6tWrzW233RZcklKOwVL2wqhO/C9NlJ0V5C3nnHOO6d69u/vsO26WpLQ3hRFdS/MLTejySfIjoNCVV15pbr311miLHwbypEmTUgM5YcgkomtAqIzR+bM/63gdpOyk3/72t9GWMHC8JUuWODFynMHD++S//uu/TL9+/VJd3rJ4oADnUz63erj77rvNhRdemJpP1vJJ0PHmp942/RQ2s5pgV0mS4tu3GUmKb19fkkDci1133dW7f2XaZZddSnY2F+0VD3FNttxyS28eRUh2VuXih6QhjTFijU0uMVDmzZtX2myzzbxlqkyNKJ/vOL4kxbdvM5IU376+FBK9Tc6J999/P/oUj+Q3SvMYMGCAd0attAfasoqiKBY1hoqiKBY1hoqiKBY1hoqiKBY1hoqiKBY1hgVH4j6Hjq7Ibnb9+/cXhQdAX1hyqop0Nm7cGH1qHptttpnTEKbB7z744IPom9IqqOg6cPkk+SEu/sIXvpDq5YFod8GCBe4vA8wHRmbFihVml112aUj8kDTKIu64+kGKcvzxx5vJkye7c4iTpnAeiMd79eqVeh4YpLlz5zojKzFOEiRL8FMu6pn6jjPunCN1gjh73LhxiVIcvFri2rUaHW9+pPlJUGOYQ+NIjSEwWDh20vHxaKmxGetm4sSJZvz48d5BTZkwGm+++aaZOXOmee655xJnTPyec5FAfRBbpF7d33bbbWdOOeUU5+kjIa2MixYtMnPmzDEPP/ywee2116KtfoiTwnElfStk/wNpfqEJXT5pfhLUGObQOFmMYZFhBsTgx/c3iSzugnlAyE4E7lkCNCWxYcMG07dv31S3xi5durhZJm6Kaeh48yPNT4I+M1TqAoPY6oT2xWbGKnlGmsdjDSUeNYZKXcSFwWwlpLfmUrh1l8xYJAZTaR5qDBVFUSxqDBVFUSxqDBVFUSxqDJWakWrkig7nkbagrNL+qDFUagbRsEQCkZeMQwpvxEO/RFFaD9UZ5qB7ahWdYZL+rXfv3uaII44w1157bbQlGYTZzzzzTKLomrerv//976NvyWCIeWtbb7/p1q2bOfDAA82YMWPM3/zN3yTGOpHoAQGpDu2bdi7EZSE8gOoMOxL6fCWoMcyhcVrBGE6fPt2MHj3abLnllonnzoCWgPA6SUqCIHvZsmVmjz32SK1DXPBeeOEFt/I0n2vtO5SH477xxhtm1qxZ5rHHHnPRA6tvmZEPYbDOPPNMc8UVV6R6vagxjCeP8SbGZlYT7CpJUnz7NiNJ8e3rSxLsYCnZgeDdvwhps802Ky1cuDAqbfNYuXJlyRoeb5kqkzWApTVr1kR71Q/HHTRokPdYlWno0KElezsd7RUPcWvsrbc3j8pEH6AvSPDt70tSfPs2I0nx7etLIdFnhkoHeKGQ5mLXCJjlScOFMmMNBbfKuMWlsXjxYhVKtzFqDBVFUSxqDBVFUSxqDBVFUSxqDBVFUSxqDJVOT8m9vAyLRBqSl7xF8aPGUOn0rF69OvoUDkISpIFOUikOagzbCNzK4tLnPve56FedD8TPcWn58uXmiSeeCLrAKyLqo446ytsOlYnfSEXrSuMpjAdK0Ql5vo3wQJk6dao566yzom8dwdPihhtuMDfeeGO0JR4GM54RzR6olJHwAHirJIEekfJhUNI47bTTzI9//OPYhRiIKij1S0bbuHbt2kSXvUrSDCznIUXHm5+Q56vGUEiRjSGzPlzZMCRJzJ8/3wwfPjzV2LSLMaR+qWfqOwRZjWFIdLz5CXm+epvcBtBxJAOUwEeKovhRY9gmSK6k7bL+oKI0AjWGiqIoFjWGiqIoFjWGnQzpg2lF6WyoMVRaEl1KSwmNGsM2AKkJspQ0WMV5iy22iL7Fw28+/vjj6Fvz4JiS8m211Vai85XmpyigxrDgIJlJSrh0Ebvj3/7t38ySJUucAUCnV5nQ26GPe/bZZ83ee+/ttHe+vNAXkt/XvvY18+KLL5qFCxe6favzq0xSEDf79i+nRYsWmZdfftmMGjXK9OzZ0xmx6vJh9Cn7/vvvb/793//drFq1ypsXZabsnAPnwjlxbtX5VaZG4CtbZVKKRcNF152N0KLrf/qnf3IGrE+fPtGWT4MB/NWvfmVmz55tXn/9dSdGrvaooK0QUO+zzz7mkEMOcQaH1Z2r+eMf/2hWrlzpYoI89dRT5s033zRLly713pJut912ZuTIkWbatGmivkD8kJdeesmtFu0DX94vf/nLLu4KcVAQOFe7EOJFggvdz3/+c3e+//qv/2rWrFkT/ff/IEZJ3759zbBhw1x+u+22mzOwxDKpZsOGDeb55583Z5xxRmq4UKnoGs8TPH2oG9qaC0ElSJwQjJ9++unmkksucYY6DR1vfoKKzDGGtcCumjomCdIYKMQiWbZsWbRXPOvWrSv16NHDm0dlsgbMxftIg/gi1lh786hMvXr1KlmDHu0VjzUGJWuMvHlUJn6zfv36aK94KB/H9uVRmTgHSawU6sQaJG8elckaw5I1xtFe8RADRdIe/CZ0DJTOlkKit8kFhnggPB9Lg9tHyUIDzFJC5vfhhx+Kgq/zG8kzSH4jmSXxG46dBufAuaRBnaRFvMvKxo0bo0/xSM5BaR5qDAtO6EEaMj+JIWwUIY8duo6V1kR7QSdDnz11ROtEATWGiqIoFjWGiqIoFjWGBacklA5IbvWQqlTLPJT/j2QlcOnttLTNlGKhxrDgSIwXg5Q3z2mgDVy/fn30TamEukmDOpYYRL3gtCZqDAsMAuN77rnHvP3220524ksLFiwwTz/9tBMY47URlxB5s8r1L37xCxf3w5cXLm7r1q0z06dPFwnC2wVE1OPGjfvE8yUuUcfUNXXuqz8SbUWb0XZKa1GzB4pSO1k8UMqzvriZH/9noN5+++3mW9/6VrS1Ixxr1qxZ5qGHHnJub3G+vXQHaUwQvCjweEnT8uF6xnL+af7EWTw8qL80g4PXDeWTaBc5b2Z0ScOB+jv77LOd0Yv7HZIfkmRYZSmf0nh0ZlhwGFS4yVX7tZYTBgHxLrOWsp+tL3Xt2tXsvvvububCAPTlRZIawnaDiwrPDX11V07UMXVNnfvqjkRbSQyhUjzUGLYBiIa5xUuDBQtY3ECpDepYBdrti7asoiiKRY2hoiiKRY2hoiiKRY2hoiiKRY2hoiiKRY1hTvBmt7OARhJNXRroFlesWBF9i4fVsiXrMiInCulxg/SmS5cu0Tel3ahLdI14OA2poBR9GxqtVkZ6rtTb5MmTzV133eWEvnFr86Fnk0SBQwOHWBnRchKIhREro4cLgVR0zTkMGTLElTFOaI6x3Hrrrc3FF19sDj/8cGd4qoXm1BP733fffU48TtwUBNjVXRjNIPkNHjzYTJgwwXzpS19y35NkMZK24zyIqfLrX/86te9LxkZW0bUkzyJD2AWJD3he1GwMr776anPvvfe6K7nPiPXo0cOMHTvWTJkyJdqSDJ32ySefNO+//360pXUgpgUD+Tvf+Y6LaSElzjDQJAy8W265xUyaNCnV17XoxhA4ZpJhp92JRfL444+befPmud/7LhIYyL322suMGTPGxTehn1XDfsuWLXMxYfAaIUYM+kpfP8Un+YQTTjBXXXVVtCUZziGp/nDVox9L+kEWY3jdddeZO++80810W9H3eccddzQHH3ywsxuFBWOYFXuFEsWM2HbbbUsfffRRtFc8dgbk4kv48miltMUWW4hiZEixxrJkDY33WJXJGsPSpk2bor3ioS34rS+PWpI1hi7eRyg4B0n5unXrJoptErqfStmwYYOrG9+xKpM1hqIYKPQp+pYvj1ZK0hgyedHQZ4ZxMx9FqQdmeMxKQ8HjiJDE+ZErxaahxlCXMlIaAbeqPJoIRWh/bHXZa0201RRFUSxqDBVFUSxqDBVFUSxqDDsRoZ/h8twuTiPZaEKeS2jtW5KESCkuagw7EaHf7vNGN6/FYEO+AZaKnqXkdYFQ6uOzV1qiz2KQNlx//fWpV2cU53gUpF15+d2mTZvcKsL85Xs9KasnC4Pal480IZ5FvDtixAg3K0AEjQCactSTfvjDH5pnn302deVkBh+/wcsD7wvKUJ3Xxo0bnWgXYbOUpHrp3bu3OfTQQ53LG8Jn3zGzpPnz55uZM2ea2bNnR0ePh36HO16vXr2cIavOC1E03ikvvPCC+y3f+ctb3urzII/TTjvNHHjggVHuyXCe5Fd9zHJ67733zAMPPGDmzJkT7REPM2vGR9qbccpJu+L5Qjv7ziNLopyhSRtDeAMhlGdc0HbUo6/PsC0vaVJNHijMMPBkSHMPwiigsCdGRxrMMOq99SlX7t13320mTpyYOhOig912223m2GOPdR2S77VAFVJ2Bh/HxSsnxIyJ2U+WWYbEEwT3tTSoh5/85Cdm5MiR3gsZ50s++AhjwPBEwkBQ//XA/tLZa9q5Uu5BgwY5zxLc8dLaV1J3tMVXvvIVs3DhwtT2ldRzVnc8SZ5JlPvpgw8+aM455xz3PQTULX2B84kz7NQXkx08qh577LFPDF8lGHnq4phjjnGTLexHU7EVkhmpsh9vgpDKfilvv/22U/f7ylSZbMOV3n333Wiv+vnggw9K22yzjfdYrZSoFzvgo7OKZ9WqVaWhQ4d68yhCsjPW0pIlS6LS1o811CU7CfAeq5Yk9UAJDX2eNvaVqZZkLzyl9evXR7nHs3bt2tLAgQO9eVQme4eTi6dKWz4z3H777aNPyTAd79evX/Stfrp37+78f1sdru6cSxqs4MIsqagwE7EXp+hb/TCrSovw1wrQ50PeijLjjpsRVsJMjzC1aTDLzAN9gaIoimJRY6goimJRY6goimJRY6goimJRY6goimJpuDHM420jqw1LQDeGzisUa9asqVmrWCS6devWFmvy0b4bNmyIvtUPb0Lr1VJWMnDgwOhTc0HPF1rDJ6kXjtunT5/oWzxSNUhoGmoMkSLgUYBXCaLcuJQVXx6ViWXXJaJnyvfSSy9588iaON4777zjBObIDOhszUgSSUMldMi08n35y18udKwKKbTJq6++6m2vWhLhA/C0CNW+LIPP32bDOWCIq8tTmThH+ooE6hlHA0IS+OqNhIMGCdG673jlhHfKQQcdlLlfh6ChHihlUKbjkhPHueeeK4qVQlEJpHTDDTdEWzrCb7Jq/dJih6TBbJCZ1LBhw8zZZ5/t/vbs2TP6b2NhtoLnC8eVcOmll5pTTjnFGzukjLQ+8JChH9TrGdFo6m3fMrvttps566yzzPDhw507Yr2EKlctpI0TtH6PPPKIueKKK6ItyZTd7uKMGDNC6u2MM85wHkFxkAf2Ig+aYgzToFNwZUlz26PxuKIR/KiIUH5uu7nCNROuvNtuu22qIJjyvfvuu6Zv377RlvpoFWMYCvopfa/Z7ZsXq1evduMt1Din/zHO87wIJFGIFyjcrkoJ1TCdFRZWUBQJoVfzgTxuf6UUwhgyOZVOUHHwVmqnHZ4FKs0h6dFWLfA4qcgvGAthDBVFUfJGjaGiKIpFjaGiKIpFjWEnI+QzV31+295kWVi4HajJGKKpy+v1eJr8Jk+okzweEHNMxKppIAkJuR4fYvrONGAQK4eMvVJ0Qrcvq4kX2bOpJp0hXHvtteb+++83y5YtS6wwiQCaQYp+K83AktdNN91kpk2b5rRtWSQ5jYQ3tMRAGTdunDn//PPFBjGtbqSGnya85ZZbzB133OF0jj7vG+p4zz33dHFLRo8ebbbeeuvoP7WBBu2ZZ54Ri70R0raqix/ti55y9913N9/85jedaHjAgAHRf9sT9IDEy5G2b1pfxcVu//33d+NXgsRuhJ4Y1WwMAbFvHFxVcF867LDDUq+mUmNYJum4eSIV46KVvPrqq81dd93l6qbaeDH40HhhXC+55BJRfA6IqxduZ5kRPvroo+anP/2pef3110WdTYK0LWbNmuU8cyQraBcN2oeAWj/72c/Mfffd59wuuRh0BqTti9stAcmYFMSBVEdyQWRMYDewH9iRasgDJ4OxY8eaa665JtoaAIxho1izZk3JDmSMbWKyRqRkTzraq/0h7kX//v29dVGZ+vXrV7JGK9qrfhYvXpxLjBbbeUvLly+PStG6LF26tC1i3IRO1siV7EwyqqX6oc9bY+c9VmViDNkLVbRX/TT0BUpez9BaAVa4SUPymyxwaxxqRpgFZgR5PWMOCTFf8qi/osNMLWT7WrskerbN3WTIl3j6NllRFMXSUGOos0JFUWqB2WGz0ZmhoiiKRY2hoiiKpeHGULLyBSvqdqZb6pBLx2chL48RHrC3Q/vSbnncvhWd0KvbQCPyTKPhxlCyIjDeE53JGLI4bh4gpM2DdllDUdfS9LPNNttEn8JBHJ5mU5foWsLUqVPNddddl2gA9t13XzNhwgSnUo+rBBaF5GqRxWjioVIUL5UyeOzMnTvXLR+fBu5feJRIRddJgxWpAur/66+/PtqSTqjFPb/+9a+biy++2LVvvZ4vWchafgTGSd5UL774opk4caJbEj9O+kF/YwYuHVb0Z/p13KKnzEYb5QKIV1CIScj48eNdeICQExrCUzz00ENm1apV0ZZPw90GMWQeeOCBaEv9NNwYAp0s6dYQt67LLrvMqfrjlpBH2f7FL37RPPXUU9GWZE499VQXG6RongIMFOlgyWIML7roIueOFwf1L/UmAFyxRowYEX2rD9ps0qRJri1C+kanQfk5DwlXXXWV+Yd/+IdEHeE3vvENc+ONNzrvh7hFcjlHPCeOOOKIaEsyM2bMcOWM88yhzebNm+cmDCFhbOyxxx4ij5A0GhWzpHxh8YHhZXwEBWOYN0uWLBF5qtjb6ZK9SkZ7xYOHh+1c3jxaKdnGFnmgoMIfMGCAN49akp1RlewsM8q9fhYuXFjaYostvMdqZLKD1PWFNOhTQ4cO9eZRmahjicfD+vXrXdv58qhMlG/t2rXRXvFQvpD1x1izd2pR7kqZQrxN5kormWJnefHQzBlI3lAvhGksKq3gj2wvyNGneKhjSR/MElqhUbMqJTuFMIYYwpDPG8Aa+uhT56DI59sKagGJkWtEHRe9XjoTqjNUFEWxqDFUFEWxqDFUFEWxtK0xbJdnMZ3t2WdnQ9u3OBTCGCI6lcTwQG/Hw/g0MIRSoXKR4aF+nO6yEt6csyx9KHr16hXUHQotW+gl2iXwFjtOzFyN5I133759Rf0P+vTpE32Kp0ePHqL2XbdunTeUQ60gfP/www+jb0qZz15piT5nBmV8WUQclySDig42Z84c56VS3qc6Mdj79+/vlsJPm/VhRFjeHtEmn335kTiWFASevjwqU5b8JDBrOPLIIz+Vf3Vigcv333/fKfURaFM31GdluaSJsAXInI466igX6yMUlIf2KJfZd2wSRlMagCipPZC2cB7EemH5+DQ45gcffODcFanz6vpD/oLL2be//W0zcuTI1P5HvyNMwPz58905+fJjodgxY8a4Po3B5neV7VpOLPBLuIGZM2dGuSeTVC/8j3FELByOW/4t5+87tjSRRxbS7AZtEEIMnpUgAaE4gWq40h5++OHmhhtuiLYkQweSXP2kM76kKy6nvHDhQvPwww+byZMnR1vjofPjUnjCCSd4Z7CUG0NETBM8FGqsUi9p5ztw4EDzla98xRmv4cOHu6t+Fp2bj0bMqrnQJclXfvOb35jnnnvOedJIwM0TQ8csNo6s58EgTTLGWfOL64PUA2OGWDRMAogfgotfHLhZSvoU/ZTxdvTRR3vdWhljeMi88cYb7rgcn3FQa38tG1iCRuFuyeckOGfcQe+88053N0N5qiGP008/3UyZMqX5BtFWRGZQr9srGzWYmLbbbjuRB0BeEHcFLwBf2SuTNS6iGA94HhDPxZdHIxMeIxs2bIhK0bpQf3aW5D3HykSb2ZlwtFfrYg2CGyO+c6wlWWPt4g6lYW+Rg3q0kJfEU4rzpYy+PCoTcWbwumk2NT0ztPt5rXo1XNGSZgN5w+0JtzBpcMWVeApIn0+FhtlMHrcVoWGmIWkPfhNqEYk8oc2SFjDJirReyrfkocAWYBPS4DeS44Z8PpqFmoyhFInBbBXawdi0E3ldeEIjfUYqJevzuyIiMayNoKHGUFEUpVVQY6goimJRY6goimJpuDFsl+eGeT3UVfy0S78K+Sy6XklVkcijfRtuDJNWDm4lOtP6iK1Au8QjCWnAttxyy+hT8wmtGsnDbtTkgVIWT6ZZb96UIaJkeXHkKXyvNVHZvGWSSC+A37IfZazOi/KzmOc999xjnnzyyWiPeNgHwe0uu+zyiWK/MjFrxL3plVdeccu0I95FcMtvG50QXR9wwAHO46IstKWuqssYOoG0LaRQj4ipy/nHQZviwYHLG1KS6rI1KlHfIeGNOAvG4kXE4K9u2ywJDxnEz/vtt1+UezwYYPorXktIe5idVufHeJW+1aVucLKgTXBKqK43El5SDz74oBOYp0E/IK8BAwY4SZsvPxLlDElNHihUIG49kqszLl40OpVbDzQY+eDxknY1xRjts88+zr0qzguA086ig8QYcg6+8yhX4f77729uueUW5wVSQ7XWBOVhIF144YXm8ccf/2Rbo8HXGEP87LPPBlutmdk3Rl0SqyWpPRrFKaecYn74wx8GvQjQP+kr9faXcl1QLxLo90meLZSL8cM4YjylkdYeHIeLmDQOj6R9CTSGm2fSbzJhC5kZW4nO64Hdm5myxEAJqeyXph122KG0cePGqBTNA2X/zjvv7C1TI1PPnj1FngdS8AjKw4NHmoYNGyaKgdIurF69OpdxLk3bb7990PZo+DPDkGR5LpHHMz5uO9L8MxsBM+bly5dH35rHhg0bok+dgwULFmTqg61Ons8gJeBnHdKTpqWMoaIoSqNQY6goimJRY6goimJRY6goimJRY6goimKpyRgidpTEjAgN+i6WZ09D8ptGQEwLiSZL8YNeDO1iUendu3cubmJ5gSJjhx12iL61PzWJrtmFJf3nzp0bbWk8GEKM8Pe//31z6qmnRlv9/OM//qO5/PLLxQJPCaFE1+U8pOJYCZwnYuVmy4mQERHuQHIuCPXxGkiqF/43YcIE5xlUJMplPvTQQ81NN93kBOdx59EuIMhGuvKjH/3I3H333dHW2qG+soiuJeB9RP8LJfqvOQYKhDyxNIgR8fzzz5v77rvP/PKXv4y2doTTwZ0nNAzS7373u85NqBoGOZ2Hcv3zP/+zefXVV83SpUuj/34aAvFwISGGTChawRhecMEF5umnn3ZaPR/MCEeNGmVOOukks+uuu0ZbiwHaQmb85fZ9+eWXnTtnO8OdHxf3Y4891nzta1+LttYO7f7UU0+Zv//7v4+21E9oY4jxaBmI3ZCHIh6viIULF0aliAdPEIkHBTEe8OIJBV45W265pfdYjUzWGIo8UKTl4zcSD6O8KLqHTOhkL7DOCyUUoesPWxByHLXUCxRulfPyAAipxm/EzFVRQsNsOA+PqrxoubfJ1oBHn5pLyKWWuK1WlKKDq1volWGKjEprFEVRLGoMFUVRLGoMFUVRLGoMhehzvo60S+xixU9nel4ILWUMEebmMQB5aYNoOI3O5J0A6Lwkqz6XBfNp8JsirxcoPY92Qdq+Uhi/IesvxAr6ldQUAyUvygNl/vz5rlJJvOWtNUmNF8dFhIowmM7BfpWJJdIJR3DzzTebn/3sZ9Fe8dCIF198cTDDzqyV2CGhJTuIqX31RiI+xdFHH21Gjx4d/ToeQjasWbPG1RMhCnz5DR482Bx22GGuTTkudc55Vdc127LWG8etzqecyjN+SZQ6yrlp0yaXyLP6HBqVQi5gWklS+9LXjzzySFH7SmHskIiHwl/q3HfstISRxk2QmC8jR46Mcq+fujxQ8gL9Uz1wyqzSTPyOb3/729HWZCR6K2m5aMyQyvlGeKDceeedzv2sa9euibMDqQ6NMiZ1NdoDLyOOO2fOHOfRg7GqBCNI3Z144olm8uTJomOPHz/ezJgxwwVAqn7UwXmhH91tt93Mj3/8Y+dmlwZGupk6UQJGcYE95phjoi1hwJPmG9/4hgsiljS7aoTOsN7xWyZ42TCGnZUlS5aU7JXmE0V7s5Id0IX2QLFGR+RxE5qVK1eWevfu7S1TZdpxxx1Lv/vd76K94iE+BnFpfHlUJjvrd95DRWX58uVB+yl50feVT9OpX6Awmwp1q9pOUCd5rErEbRsz5jSI2iaB20vJbzdu3Bh9KiaEAeX2MBS0L31f+TSd2hgqiqKUUWOoKIpiUWOoKIpiUWOoKIpiUWPYJoQUn7YTknpBYlNksXdotK/4UWPYBjCYCTWgfBrqRfIWdrvttmv7lasrCe1Z0i7UJbpGPBm3O54EWWQr5IMUIoTaXipmpvxf+MIXnDeBBAZWkqeCxGUPQouu4aKLLjJ33HFH9K0jzHyyhGkgxMKIESOib42H+viP//gPc8ABB0Rb4ilLcCSiW5atnzVrVvStI1tttZXZa6+9PvG2SGqTkO1VJq3f02bz5s0z++67b7QlnbR+SrsibifAVYhZYtZ6kY6TJCh3aNF1zcZw7Nix5sknn+yg6i9DpDjcta655ppoSzLHHXeciy2xatWqaEttUEkTJ0507m5pZDGG5Hfeeec5xX4c06dPN+eee270LZ5GGEPAayMOvFMIZnT99ddHW9KhnM0CY4DHiaQ7ZjGGkFQvuNb9/Oc/N4888ojzfEnyjjjrrLPMDTfcEH0LA3kSWA13Th9cxJLKVM2kSZPMKaec4rSJcRDLhf783nvvBTFMePlcccUVIsPKcW+77bboW+1g7A8++GDzwAMPRFsCgDHMCt4TeFGwe1Lq06ePSNlvGzuoB8VOO+0k8vDAi8EOLG8elYm4De+88060Vzx2gIo8Bai7kB4oUjiHdojhQZtJPFCkLFq0qPTFL37Re6zK1LNnz5KdqUV71Q99gDgjvmPVkhhDEs8hYgnZC4k3j1pSv379ROOceDl4+/jyqCWFHkcNfXCAv2kerFy5MvoUDjsQok/xcHtS5IfTvXr1ij4plXB3IPFUsQMv+hSOEDOzSnj+mYZkUYosrFu3LvqUjLU3biZeVBpqDEM8/6uFRhxXsvRQkQ0hSM6hM0K9SPoMt6wM6JCEfosd2tBJkI436q7Ib+31lZKiKIpFjaGiKIpFjaGiKIpFjWEOqOC1for87CkL2heKQ1u2RCPWapO8GWc1ZVZOToPf5PWmXbKac9HB2ybkqt6EIpB48KCdDWm86AOS/iIFDaykXuiniM1DgdZYetyQLzcZ5yFfCrakMdx88829iYFOBeF1EBo8MhCEI69ABItnQDkxmHDnYnn2Pffc0/Tv399bPhLylmHDhplnnnnGrF271nWiyrwqUyP40pe+5AS5vrLVkhqB7zgk2hfpyIEHHmjeeOMNs3r1am+9ZUnIQl5//XXnfYKxQ9BdfVwMVt++fZ2YOcvbWt/xSLQ5bU8foC/QJ6qPKU0IzxHHU/ZRo0aZl156yQnSq/soiX5KaAVE5uV+yv6+fMtJAgbuzTffNEuXLu1wzHLiuL/4xS9inTSq8ZWlnDhfyo7jR8jFmWvyQEEbhTYrTXdFwWmYtNkIlYURS7u6kM+FF15ozjjjDNdpfRWBvIX/SaDDSD1QGAScj29mgL6QQTp8+HDzzW9+0+y+++4uYJIPPA1eeOEF5+2Axw3nXn215LzwTuE8UfdLz0cCAyIEGCIGM0F5QkE9XnDBBS5PDFB1+3JrTPwRBtXs2bPd8SlHPTAjxBAS7wUDQRvHIZ1V058I0DVt2jQ3VqpjuTCb4Tgcj/6y3377mT59+kT/rQ3GIhdjXA+J7ePT81GfGE1ivhx00EGuv2JUfJIwdJdMAKTtK6kb2k4SP4by3H777e6il3SXJ20PMRjDrKD6lnig2AYP6oFiT955eYRC6oEiTdawluytT5R7PMS06Nq1qzePykR+qPaLCucR0pOBtpC0r53NlexsyptHLckaiKD9ijaj7XzHqkz0AeowFPbOReTRYu8MSuvXr4/2ioeyMYZ9eTQy2YlAyRrjqBTNo+Vuk4NfDQLCTFPib8yshxlhGqFmcY2C504hRb7MuiXty6wqpCcDdyRJM8JakLQdfSDkM0P6nuS40n4aun2lcMyQzzSltOULlKKTRwdrBHl6tIR8EB8yr6yE7AvcXoZ8y55nP82jb6kxVBRFsagxVBRFsagxVBRFsagxzAmJPornJu3iaREaSf1JQdIjkXxIydJmUt2dhJDnADxLDVnPWaiWIzUDNYY50aVLl+hTPLxpzPPhfpEJqSro2rWr08OGIkubSVQFUkKeA6BdTFrZvZHgrdJsPnulJfoshsZm+fg0683MhmW+ufImwdURkWralY18yE/ypqlUKrn8EL3ytzLRARE/I1JlIVjkCORJ/kgssqayF8CZZ57pxKxpcLWlHIiuffmVE7E5kEDwuTx7aUbieBKk/QCoX/Itn091Gjx4sBkzZow55JBDoj3ioS4QNq9Zs8bJRHz5SRNi+a9+9atOytG9e/dPhN21JuK4PPzww04Ungb1hyHmwkj/8eUnTXhH3Xrrrc67JA3aCzEziXbx5bd8+XLz4osvOpdBPvvqLkviONQt4zINjk8/KXvmVJetnPhfSFrOA4X80iqBSke9/tZbb5mNGzdGWz8Nv2Eg3HfffWafffape9FOZA1pRr+SsrFO4l/+5V/Mtdde6845ra5DgkH/6U9/Gn2LR+rBQ90Qb4Pfxunb0Bgi5ZD6/tJ+XET5Ww9cCF955RUzc+ZM8+ijj7pzqoes5cp63nFwPIxrln7MRTnuuIy1gQMHmnHjxpkTTzwx2lo79HW8hQYNGiQqo6ReRo4c6Ty5gmELlpk8PVD4bRp2cIpiLeDxsHTp0miv4vHuu++W7G2Kt+yNTL179xbF+pB68NAPNm3aFO1VPBYvXlwaOnSot+ydOTGG7IQiqqX6oQ/QF3zHqiXhOSTpp1La9pmhxEOBK3hez0QkbL/99qmzx0bArVHIB/tFh9vjRYsWRd+UMowhZodFhfKF7KdtawwVRVGyoMZQURTFosZQURTFosZQURTFosZQURTF0qmNIW+iWK5fqR3eeKfBkvl5uFdJQcfZr1+/6JtSycKFC6NP9YM+OeTbX0TZEgcMKW0puqZclI9yJoEY+LbbbnMxUxCg8r0eQi7PD1JRcxnJ8SV54Q1BPactAEr5LrvsMnPvvfe6NqwWGiOYpbMeffTR5vLLL3flyyJMbzR0ffoc8Tsee+wxlxBh1yvkBmmbFRna/wc/+IE57bTTXDvWIwwvi66HDBkiqt+kvsw4ZbwSrgGniXrHbZlObQzL4E5XDzQMLlXEi7j00kujrfWTxRh+73vfM+edd57zZ/ZdLRnkGH6J96XUGJah/XzdiE7PjHDevHnmkUcecTE13n///ei/xQB3uAMOOMAcccQRZt999627LyxYsMA88cQT5pJLLom2tD711kkZPGRIEiZPnmyOP/5407Nnz2hLR0KV6xMwhllpBQ8UO5C9eTQyScsnxRrzoB4e0pgWtC1tHApp++aV8LQIGYuEODh2oHqPpSk9MY7sLDKqzeahL1A6EdKZXmeDO4mQdZPncvntAncnzUaNYSeC23mlIzzPClk39TxbU/4/efRVbTVFURSLGkNFURSLGkNFURRLQ41hns+oQoox8yTk8ydkDUXS+RUF6kQq+VDal4Yaw9BvL7MYhjQtYqsQ8s0kesDg2qw2gDqhbpTOTU0xUJjxofomNgJv4hiwbKtMuGCdfPLJopggzOIQXLNYI6k6L9LOO+9sjjnmGHGMEZb7X7t2rZNNVOcVOiEDQBx64YUXOuGuFEThZSFqZUKozOB8/fXXnYiac0E07Tv2Tjvt5JT4GH/KQbuUl4CvTAi3X3rpJecORewQtlXnxcWrf//+5rvf/a7Zb7/9olLWD+3LgrGcQ1z7kuhHUnct8mQfZnXV+WRJhH6gT1HPLPJaKpU61F058XsJtB+xYdgnDeq8ukyNTpJyVRKqjCDxPqFNpbGOQlKTB0oZDE0aUr0QRlXSSNL8JGULTZayobC/66673MCpNgAYBTrESSedZM455xy3GnfcjI68CGpFrJRnnnnGGVFffgz2ww47zHzrW98yw4YNc9/jZtrS88gC3jRJA4ELAxcvibsWrlpz5841AwYMcJ9rdcfiOGV3vFmzZjl3PL776o+LDfFAaLe0OxQuPHgOcc5JYGTefvtt5wXTjBk750s9z5gxw1xwwQVer6FKKB9zJdzx6I/UQ63QT1kHYI899kg9rtTTLDgYQ6W54CEzePDgTxT3cWnQoEEl2ymiveJZt25daYcddvDmUZns7Dqop0Vo8DqwswFv2SsTXjkhPRSoE+rGd6zKtOuuu5bsRTvaKx47AxZ5oFhj49qu2RBbx87UvGWqTJTvnXfeifaqnxUrVojaN7Qnl5SGPjNU4pHE3OBKKpkxMDvCCT4NwqNus8020bfiwUxEOvsgtGcoqBPqJg1WcJHc5mWhGTPCalihR1rPzL5DwYyvntllo1FjqCiKYlFjqCiKYlFjqCiKYlFjqCiKYlFjqCiKYlFjmBMDBw6MPsUjiS+SlVWrVkWflDKh6wTNbLvAyt2hQJ/Zu3fv6Fs8jej3EtQY5gByijFjxjhRaVLiN8hNQoHw9bnnnnMibcTZ9STE4qXa9fpNBePkOwcSdUGdSET6iKkXL17sfuvLi4RhRUjN59BUH6syNaI9EI0/+uij7q/vmFkSYna8kBBd+/p6ORE+g36PyLvZ1OyBEioIS7uRpTpxT0sCXZYEOpskhkwZOl3ZPapW+vTp4wI9TZo0KdpSP5Sf8+B8kkBXiYeCRKN37rnnmgceeMAZRF/blF0fpTC74bhxXijkR5LoEbnQcR4Sjx9cJKdPnx5968jWW29tzj//fOdZkobUQ6ZMPV4+ZXr06GGGDh1q/u7v/s7sueee0daO4IKXh/bSgTGsBXbV1DHlAWr9PGKM9OrVy3lbhII4LtZQe49VmfBAIT5MGnYGJ4rVk1fCwwNvpDRoX7wyfHlUJrxo+G0aUg+Z0IlzWL9+fVSK4qG3yUrNsOiCUhzw7S46uc36BKgxVGom6+onSmMp+osbbrXTFrnIEzWGiqIoFjWGiqIoFjWGiqIoFjWGSksiXRFbUaSoMWwD0OehbWt10F1KNHf85sMPP4y+xYOeDo1cq8NLB3SEaUh1qXmB9pIQFkVFRdeByVKdUpF0EiwAiwcFglsJLPefhrRcyCQQDUsMDl4bSbM5PDteffVV89RTT5nXXnvNlaH67SgLg3LMffbZx8UtGTlypIthUg2DbunSpW45f/J74403nKdJvW+/Q7RXJVLRNX3q5ptvdmEikM/43hpjCKmT22+/3Ynqk8gquibvpPEurRfKRZyg008/3Xma1OtlIunLWWi4Mawx+8IR8nwxDFOmTHGdmw5Z76wuzruiGgzJzJkzzd577+3tSBgrgkXde++95oorroi2xpPFGB511FHOyGGUfBBQa7fddjNjx441X/3qV135qr1kMGbE8Jg9e7b5yU9+Yl5++WXn4lUNMyk8HoYPH+7ywwUMo1nrKsu0z/r1680dd9zhAj2FWu06iwcKSDxl0gwhSI0h5SvHQKGtqwM0US/M5unHU6dOTfWoKiMpYxK0I8G7jjvuOHPVVVdFWwOAMawFdpWkdsF3br4kAa+D3r17e/dvZMJzw84solLEY2ebJXvV9uZRmewAEXmg2EFTssbOm0dl4jfWOER7xUMsDTsYvHlUpm233TZorJTf/OY3otgh0iT1QAmN1AOF8tkZdrRXPMSQkXjIhE59+/YVxaSRos8Mc4KZRrNhdit5rkRMkJCxKphxSmYN/EZSPuKfSG7NpPlJwW+6yKLhRiB5VplXXJ1169YFFf6rMexktMuz3tCBmRRFjaGiKIpFjaGiKIpFjaGiKIpFjWEnAqlKSHF2tdSiXkqlksizhHMIfey80GefxUGNYScC7R1v4ELBW93QSN4Sr169uiHHzgN0k0oxUGNYcHj7i1IfYXM9CfkDouZXXnnFrFixwglvfYkFW3/5y1+aESNGOKEy0hRffoMGDTInn3yy+5wGItu//du/NTvvvHOHfMppwIABTgzOsX3lKifKh0fJXnvtZfr27evNizJT9mOOOUYsaM4DDOGMGTPM/PnzvefaqEQYBKn3SWeiMB4oeUk+QpdPkh8eKHgASGYFc+bMMUOGDHG/rweO9cQTT5iHH37YeW4krVKN58Y999xj+vfvH3sbhw6RW9Us9YImLO42mDph1nr55ZebWbNmRVs7wjGPPPJIc8IJJ7iYGrh1+UAPGDqoELNWSYyWLFB/nFNIXWcaUkMo9ZChPuifEi1pSCgX5aOcQbCdtCbYVZKk+PZtRpLi29eXJNirs1P3+/avTHgJhIwZ8dZbb5WsgfMeqzLZWWQunhHW2JQGDhzoLVNl2mWXXZzXQ7ORxmhplyT1kLHGNRcPFGsMXZybUOhtcsEJObthpsfztjSYReYxU7f90d3Cp7Fw4ULTrVu36JuihEGNYScCA4fBKTKS8vGbPIy10t6oMVQURbGoMVQURbGoMVQURbGoMVQURbGoMVQ6gLub5K1zaBAES9zxQLrUfEh4s9+1a9foW/sjFayj6cxD3N6rV6+gbpkqug5cPkl+UtF1lmX1JSCK5bgS0fD06dPN6NGj3fL7zWgbjNuyZcvcEv1pdUh9vPDCC85rhc9x5Qsmxo2gXAcccIB56623EkXrIBHUQ+gySo9LndG/4sC4EYoBgX6aoUOYP2zYMHcBbYbwGuNLvzz88MNdzJdQqDEMXD5Jfq1gDKHZV3sGldQ7Ahc/BoWvXdjer18/c/zxx5sJEyZEW8OQVkY0kMRoGT9+fLQlmeuuu84ccsghzrDXA9ECf/SjH5nLLrss2pLMxIkTzdFHH+2Om9S3pX2APt1sQvdPNYZqDNsWBgvR5Jpt1AlSxS1cmmFnVkgUv1DL5q9atcoZt7T2pT6CurG1CfrMUGlbarzO102W51ghPYykUee4sOc1+SgyagwVJTDcpksJuUBDyJcJnRE1hoqiKBY1hoqiKBY1hoqiKBY1hgUnZIwMxNShFzxV/EheUGR5tqg0Hm2NgsPq0KHAwyOUTEdJRmLo9IVHsVBjWGDQqU2bNs3FyEA7Vk9ClPvaa6+ZUaNGme7duzsZRlxqBMxIfceqTKFnreg4p06dapYsWeIuBL56yZKkoN87//zzvedYmc4777y20fr56quWFDJ6Y1ZUdF1g0TUQ3CgEzAhxXzrssMOc6xTuTD64LSdWCjFGauwaHWAGxArWGIC4GRPHZTAgVg45G6bdQsyGKfepp55qbrzxRtGsDx/rtPalPgjfGgppjBbqA9F1kjteFjgernucc72Pdbg4HHvsse4iRv00Fdvha4JdJUmKb99mJCm+fX1JAnElbKN7929kGjJkSMnOkqJSxPPee++V7CD15lFLsjO+0oYNG6Lc4+E3/NaXRxGSvYiU7MwlKm3xkMZoscawZA11tFf9EANlq6228h6rlkSMG/JsNnqb3IlYvHixC6GZRu/evcOuBmJnZxJxMb/J6w5BwoIFC8Sr6nQ2Qr7ow787D9QYKoqiWNQYKoqiWNQYKoqiWNQYKoqiWNQYKoqiWNQY5sSOO+4YfWouLACaBouT5uGpwpvkgQMHRt+KBwunFt2FDr1fGqgFQi4d9sEHH0SfwvDXf/3XblHeZqOi68Dlk+T3hz/8wVx55ZXm1ltvjbbUDpIGPFUkkg88PO6//34zYsQI06VLl2jr/8E5kn71q1+Z73znO2bRokWfbKuG43LMtNWcAfEsnTtO6F0G8S7L1t91113RlmJx2mmnmZtuukncF5oN9Xf66ae7+DBJMVqOOuooc/fdd0ffkqGdcRJI6td33HGHCyOQJvYG6i7JkYC+QvmOPPJIM3jwYO9vy30y9AW7MMaw6DTifCWdJw2CKD399NPmnHPOibakw6zApyNk1rPVVluZ3Xff3Zx55pnuLx4NvnNfvny5mTFjhvn+978fbYlHagzLhKiXRtB0j4ga4SKV5MWT5Tyuvvpq84Mf/CD65kfaXvQjLiZnnXVWtKUjuOM9//zz5qGHHjJz5851dynV0E+33nprc9xxx5nrr78+2lo/agyFFPl86YwYrVDhM6UxMrjl3mGHHZzfbxJZjaFSDHAn5JZ15cqV0Zb6oP3pB2nGmDuSvffeO/W4oWO56DNDpWZC+U0rxSXtQtcIeISTR1xsNYZKzegSVO1PyEUzpLB4RR6r16gxVBRFsagxVBRFsagxVBRFsagxVBTFSx7PC8vk8TxajWEbgOwHmUEokCoU3dNCaTwff/xx0HUKpaCDlciwQvdT1RkKacT50tmSkEpXOObNN9/sPAHWrVvnPFxqgasxrlonn3yyGT9+fLQ1HrxPCF8QWmeYVC90/qyGP62eG4G07UKVDQNCPUuNA30mqd0Q1c+ZM8fFcgmFVGcIHPfxxx83a9asibb8H/TTPn36uNAUl1xySbS1fhpuDDsbkurEvWnKlCku2BPC1moZAdICBvy4cePM9773PbHbUSjPDUlnhdDGkHyuu+46Vy8Yibh6OfHEE81VV10liuFx6aWXOhdEPBmacduHZ8SgQYOcS1zaGGHW9fWvf938+te/9npaSOAYGEC0eQcddJC5/fbbRe1H35o9e7YTLSf12ZDeQFmMoeS40n4qBmNYC+yqqWOSYAd9afvtt/fuX5n4jTUK0V7FgzgaxNPwlb0y2U7r4nOk8dFHH5X69+/vzaMyDRw4UBTDw86Q3W99eTQy9ejRwx07DeJ88FtfHrWkAQMGiGKHWENTsjMrbx6NTNYY5hLbRIo+GMoJyeoxodygWgXbH0X1snr16uhTMswEJfmFhlmtZOEMZoYhPS14RCKBGTczQuXTqDFUlMBg1KVk+a3SWNQYKoqiWNQYKoqiWNQYKoqiWNQY5oREYR9yafZGITkPpB8SKVZZJpJGHt4JWcgiO8vy2zRaob8UGTWGOdGrV6/oUzySeBZ5g/g1DbSIUiS/lRwTMDR5GAj0kFJCeg4hmFdqR41hDjAATjrpJPc3KeEJkkdgJimInvECQPDrK385IZKWnAe/4be+PMqJY3FMieCa3xx88MHefBqVWPl79OjRovLhTnbooYe6fXx5ZUkYwuOPP14kRKaeR40aZbp16+bNqxGpf//+7pjBhdIBqdkDRakfvE+SCLWceaPBEyWpG2U9j6R6YbYnMTSVpNVzSLiFJ0lvf6k39JD1escwAybgVxbw8miW7zF1kmXGnAdqDBVFUSx6m6woimJRY6goimJRY6goimJRY6goimJRY6goimL5zJ/+9KdPvU0OqYhXFEUpAhLRjM4MFUVRLGoMFUVRLB1ukxVFUTojOjNUFEUxxvw/5ejDCXuTPXIAAAAASUVORK5CYII=;" parent="1" vertex="1">
          <mxGeometry x="337" y="335" width="175.99" height="170" as="geometry" />
        </mxCell>
        <mxCell id="dSVtmwzIWPI7p82l80rs-29" value="SAFE_SITE" style="shape=table;startSize=30;container=1;collapsible=1;childLayout=tableLayout;fixedRows=1;rowLines=0;fontStyle=1;align=center;resizeLast=1;" parent="1" vertex="1">
          <mxGeometry x="370" y="610" width="180" height="130" as="geometry" />
        </mxCell>
        <mxCell id="dSVtmwzIWPI7p82l80rs-30" value="" style="shape=partialRectangle;collapsible=0;dropTarget=0;pointerEvents=0;fillColor=none;points=[[0,0.5],[1,0.5]];portConstraint=eastwest;top=0;left=0;right=0;bottom=1;" parent="dSVtmwzIWPI7p82l80rs-29" vertex="1">
          <mxGeometry y="30" width="180" height="30" as="geometry" />
        </mxCell>
        <mxCell id="dSVtmwzIWPI7p82l80rs-31" value="PK" style="shape=partialRectangle;overflow=hidden;connectable=0;fillColor=none;top=0;left=0;bottom=0;right=0;fontStyle=1;" parent="dSVtmwzIWPI7p82l80rs-30" vertex="1">
          <mxGeometry width="30" height="30" as="geometry">
            <mxRectangle width="30" height="30" as="alternateBounds" />
          </mxGeometry>
        </mxCell>
        <mxCell id="dSVtmwzIWPI7p82l80rs-32" value="SITE_ID" style="shape=partialRectangle;overflow=hidden;connectable=0;fillColor=none;top=0;left=0;bottom=0;right=0;align=left;spacingLeft=6;fontStyle=5;" parent="dSVtmwzIWPI7p82l80rs-30" vertex="1">
          <mxGeometry x="30" width="150" height="30" as="geometry">
            <mxRectangle width="150" height="30" as="alternateBounds" />
          </mxGeometry>
        </mxCell>
        <mxCell id="dSVtmwzIWPI7p82l80rs-33" value="" style="shape=partialRectangle;collapsible=0;dropTarget=0;pointerEvents=0;fillColor=none;points=[[0,0.5],[1,0.5]];portConstraint=eastwest;top=0;left=0;right=0;bottom=0;" parent="dSVtmwzIWPI7p82l80rs-29" vertex="1">
          <mxGeometry y="60" width="180" height="30" as="geometry" />
        </mxCell>
        <mxCell id="dSVtmwzIWPI7p82l80rs-34" value="UK" style="shape=partialRectangle;overflow=hidden;connectable=0;fillColor=none;top=0;left=0;bottom=0;right=0;" parent="dSVtmwzIWPI7p82l80rs-33" vertex="1">
          <mxGeometry width="30" height="30" as="geometry">
            <mxRectangle width="30" height="30" as="alternateBounds" />
          </mxGeometry>
        </mxCell>
        <mxCell id="dSVtmwzIWPI7p82l80rs-35" value="URL" style="shape=partialRectangle;overflow=hidden;connectable=0;fillColor=none;top=0;left=0;bottom=0;right=0;align=left;spacingLeft=6;" parent="dSVtmwzIWPI7p82l80rs-33" vertex="1">
          <mxGeometry x="30" width="150" height="30" as="geometry">
            <mxRectangle width="150" height="30" as="alternateBounds" />
          </mxGeometry>
        </mxCell>
        <mxCell id="dSVtmwzIWPI7p82l80rs-36" value="" style="shape=partialRectangle;collapsible=0;dropTarget=0;pointerEvents=0;fillColor=none;points=[[0,0.5],[1,0.5]];portConstraint=eastwest;top=0;left=0;right=0;bottom=0;" parent="dSVtmwzIWPI7p82l80rs-29" vertex="1">
          <mxGeometry y="90" width="180" height="30" as="geometry" />
        </mxCell>
        <mxCell id="dSVtmwzIWPI7p82l80rs-37" value="" style="shape=partialRectangle;overflow=hidden;connectable=0;fillColor=none;top=0;left=0;bottom=0;right=0;" parent="dSVtmwzIWPI7p82l80rs-36" vertex="1">
          <mxGeometry width="30" height="30" as="geometry">
            <mxRectangle width="30" height="30" as="alternateBounds" />
          </mxGeometry>
        </mxCell>
        <mxCell id="dSVtmwzIWPI7p82l80rs-38" value="SAFE_DATE" style="shape=partialRectangle;overflow=hidden;connectable=0;fillColor=none;top=0;left=0;bottom=0;right=0;align=left;spacingLeft=6;" parent="dSVtmwzIWPI7p82l80rs-36" vertex="1">
          <mxGeometry x="30" width="150" height="30" as="geometry">
            <mxRectangle width="150" height="30" as="alternateBounds" />
          </mxGeometry>
        </mxCell>
        <mxCell id="dSVtmwzIWPI7p82l80rs-39" value="SCAN_QR" style="shape=table;startSize=30;container=1;collapsible=1;childLayout=tableLayout;fixedRows=1;rowLines=0;fontStyle=1;align=center;resizeLast=1;" parent="1" vertex="1">
          <mxGeometry x="590" y="320" width="180" height="210" as="geometry" />
        </mxCell>
        <mxCell id="dSVtmwzIWPI7p82l80rs-40" value="" style="shape=partialRectangle;collapsible=0;dropTarget=0;pointerEvents=0;fillColor=none;points=[[0,0.5],[1,0.5]];portConstraint=eastwest;top=0;left=0;right=0;bottom=1;" parent="dSVtmwzIWPI7p82l80rs-39" vertex="1">
          <mxGeometry y="30" width="180" height="30" as="geometry" />
        </mxCell>
        <mxCell id="dSVtmwzIWPI7p82l80rs-41" value="PK" style="shape=partialRectangle;overflow=hidden;connectable=0;fillColor=none;top=0;left=0;bottom=0;right=0;fontStyle=1;" parent="dSVtmwzIWPI7p82l80rs-40" vertex="1">
          <mxGeometry width="30" height="30" as="geometry">
            <mxRectangle width="30" height="30" as="alternateBounds" />
          </mxGeometry>
        </mxCell>
        <mxCell id="dSVtmwzIWPI7p82l80rs-42" value="SCAN_ID" style="shape=partialRectangle;overflow=hidden;connectable=0;fillColor=none;top=0;left=0;bottom=0;right=0;align=left;spacingLeft=6;fontStyle=5;" parent="dSVtmwzIWPI7p82l80rs-40" vertex="1">
          <mxGeometry x="30" width="150" height="30" as="geometry">
            <mxRectangle width="150" height="30" as="alternateBounds" />
          </mxGeometry>
        </mxCell>
        <mxCell id="dSVtmwzIWPI7p82l80rs-43" value="" style="shape=partialRectangle;collapsible=0;dropTarget=0;pointerEvents=0;fillColor=none;points=[[0,0.5],[1,0.5]];portConstraint=eastwest;top=0;left=0;right=0;bottom=0;" parent="dSVtmwzIWPI7p82l80rs-39" vertex="1">
          <mxGeometry y="60" width="180" height="140" as="geometry" />
        </mxCell>
        <mxCell id="dSVtmwzIWPI7p82l80rs-44" value="FK&#xa;" style="shape=partialRectangle;overflow=hidden;connectable=0;fillColor=none;top=0;left=0;bottom=0;right=0;verticalAlign=top;" parent="dSVtmwzIWPI7p82l80rs-43" vertex="1">
          <mxGeometry width="30" height="140" as="geometry">
            <mxRectangle width="30" height="140" as="alternateBounds" />
          </mxGeometry>
        </mxCell>
        <mxCell id="dSVtmwzIWPI7p82l80rs-45" value="USER_IDX&#xa;&#xa;QR_CAT&#xa;&#xa;SCAN_RESULT&#xa;&#xa;SCAN_DATE&#xa;&#xa;SCAN_URL" style="shape=partialRectangle;overflow=hidden;connectable=0;fillColor=none;top=0;left=0;bottom=0;right=0;align=left;spacingLeft=6;" parent="dSVtmwzIWPI7p82l80rs-43" vertex="1">
          <mxGeometry x="30" width="150" height="140" as="geometry">
            <mxRectangle width="150" height="140" as="alternateBounds" />
          </mxGeometry>
        </mxCell>
        <mxCell id="dSVtmwzIWPI7p82l80rs-46" value="EMG_CON" style="shape=table;startSize=30;container=1;collapsible=1;childLayout=tableLayout;fixedRows=1;rowLines=0;fontStyle=1;align=center;resizeLast=1;" parent="1" vertex="1">
          <mxGeometry x="590" y="80" width="180" height="180" as="geometry" />
        </mxCell>
        <mxCell id="dSVtmwzIWPI7p82l80rs-47" value="" style="shape=partialRectangle;collapsible=0;dropTarget=0;pointerEvents=0;fillColor=none;points=[[0,0.5],[1,0.5]];portConstraint=eastwest;top=0;left=0;right=0;bottom=1;" parent="dSVtmwzIWPI7p82l80rs-46" vertex="1">
          <mxGeometry y="30" width="180" height="30" as="geometry" />
        </mxCell>
        <mxCell id="dSVtmwzIWPI7p82l80rs-48" value="PK" style="shape=partialRectangle;overflow=hidden;connectable=0;fillColor=none;top=0;left=0;bottom=0;right=0;fontStyle=1;" parent="dSVtmwzIWPI7p82l80rs-47" vertex="1">
          <mxGeometry width="30" height="30" as="geometry">
            <mxRectangle width="30" height="30" as="alternateBounds" />
          </mxGeometry>
        </mxCell>
        <mxCell id="dSVtmwzIWPI7p82l80rs-49" value="CONTACT_ID" style="shape=partialRectangle;overflow=hidden;connectable=0;fillColor=none;top=0;left=0;bottom=0;right=0;align=left;spacingLeft=6;fontStyle=5;" parent="dSVtmwzIWPI7p82l80rs-47" vertex="1">
          <mxGeometry x="30" width="150" height="30" as="geometry">
            <mxRectangle width="150" height="30" as="alternateBounds" />
          </mxGeometry>
        </mxCell>
        <mxCell id="dSVtmwzIWPI7p82l80rs-50" value="" style="shape=partialRectangle;collapsible=0;dropTarget=0;pointerEvents=0;fillColor=none;points=[[0,0.5],[1,0.5]];portConstraint=eastwest;top=0;left=0;right=0;bottom=0;" parent="dSVtmwzIWPI7p82l80rs-46" vertex="1">
          <mxGeometry y="60" width="180" height="110" as="geometry" />
        </mxCell>
        <mxCell id="dSVtmwzIWPI7p82l80rs-51" value="FK" style="shape=partialRectangle;overflow=hidden;connectable=0;fillColor=none;top=0;left=0;bottom=0;right=0;verticalAlign=top;" parent="dSVtmwzIWPI7p82l80rs-50" vertex="1">
          <mxGeometry width="30" height="110" as="geometry">
            <mxRectangle width="30" height="110" as="alternateBounds" />
          </mxGeometry>
        </mxCell>
        <mxCell id="dSVtmwzIWPI7p82l80rs-52" value="USER_IDX&#xa;&#xa;CONTACT_INFO1&#xa;&#xa;CONTACT_INFO2&#xa;&#xa;CONTACT_TYPE" style="shape=partialRectangle;overflow=hidden;connectable=0;fillColor=none;top=0;left=0;bottom=0;right=0;align=left;spacingLeft=6;" parent="dSVtmwzIWPI7p82l80rs-50" vertex="1">
          <mxGeometry x="30" width="150" height="110" as="geometry">
            <mxRectangle width="150" height="110" as="alternateBounds" />
          </mxGeometry>
        </mxCell>
        <mxCell id="dSVtmwzIWPI7p82l80rs-54" value="&lt;font style=&quot;font-size: 16px;&quot;&gt;USER&lt;/font&gt;" style="text;html=1;align=center;verticalAlign=middle;resizable=0;points=[];autosize=1;strokeColor=none;fillColor=none;" parent="1" vertex="1">
          <mxGeometry x="390" y="130" width="70" height="30" as="geometry" />
        </mxCell>
        <mxCell id="dSVtmwzIWPI7p82l80rs-55" style="edgeStyle=orthogonalEdgeStyle;rounded=0;orthogonalLoop=1;jettySize=auto;html=1;entryX=0.014;entryY=0.5;entryDx=0;entryDy=0;entryPerimeter=0;" parent="1" source="C-vyLk0tnHw3VtMMgP7b-27" target="dSVtmwzIWPI7p82l80rs-54" edge="1">
          <mxGeometry relative="1" as="geometry">
            <Array as="points">
              <mxPoint x="290" y="145" />
              <mxPoint x="290" y="145" />
            </Array>
          </mxGeometry>
        </mxCell>
        <mxCell id="dSVtmwzIWPI7p82l80rs-57" style="edgeStyle=orthogonalEdgeStyle;rounded=0;orthogonalLoop=1;jettySize=auto;html=1;entryX=-0.006;entryY=0.063;entryDx=0;entryDy=0;entryPerimeter=0;" parent="1" edge="1">
          <mxGeometry relative="1" as="geometry">
            <mxPoint x="450.0000000000002" y="144" as="sourcePoint" />
            <mxPoint x="578.9200000000001" y="145.92999999999995" as="targetPoint" />
            <Array as="points">
              <mxPoint x="514.92" y="144.97" />
              <mxPoint x="579.92" y="144.97" />
              <mxPoint x="579.92" y="145.97" />
            </Array>
          </mxGeometry>
        </mxCell>
        <mxCell id="dSVtmwzIWPI7p82l80rs-58" style="edgeStyle=orthogonalEdgeStyle;rounded=0;orthogonalLoop=1;jettySize=auto;html=1;entryX=-0.011;entryY=0.107;entryDx=0;entryDy=0;entryPerimeter=0;" parent="1" source="dSVtmwzIWPI7p82l80rs-54" target="dSVtmwzIWPI7p82l80rs-43" edge="1">
          <mxGeometry relative="1" as="geometry">
            <Array as="points">
              <mxPoint x="425" y="260" />
              <mxPoint x="530" y="260" />
              <mxPoint x="530" y="395" />
            </Array>
          </mxGeometry>
        </mxCell>
        <mxCell id="dSVtmwzIWPI7p82l80rs-59" value="&lt;font style=&quot;font-size: 16px;&quot;&gt;HISTORY&lt;/font&gt;" style="text;html=1;align=center;verticalAlign=middle;resizable=0;points=[];autosize=1;strokeColor=none;fillColor=none;" parent="1" vertex="1">
          <mxGeometry x="415" y="830" width="90" height="30" as="geometry" />
        </mxCell>
        <mxCell id="dSVtmwzIWPI7p82l80rs-61" style="edgeStyle=orthogonalEdgeStyle;rounded=0;orthogonalLoop=1;jettySize=auto;html=1;" parent="1" edge="1">
          <mxGeometry relative="1" as="geometry">
            <Array as="points">
              <mxPoint x="681" y="840" />
              <mxPoint x="510" y="840" />
            </Array>
            <mxPoint x="680.9555172413793" y="530" as="sourcePoint" />
            <mxPoint x="510" y="840" as="targetPoint" />
          </mxGeometry>
        </mxCell>
        <mxCell id="dSVtmwzIWPI7p82l80rs-63" value="" style="endArrow=classic;startArrow=classic;html=1;rounded=0;entryX=0.011;entryY=0.547;entryDx=0;entryDy=0;entryPerimeter=0;exitX=1;exitY=0.355;exitDx=0;exitDy=0;exitPerimeter=0;" parent="1" source="C-vyLk0tnHw3VtMMgP7b-6" target="dSVtmwzIWPI7p82l80rs-2" edge="1">
          <mxGeometry width="50" height="50" relative="1" as="geometry">
            <mxPoint x="270" y="430" as="sourcePoint" />
            <mxPoint x="330" y="430" as="targetPoint" />
          </mxGeometry>
        </mxCell>
        <mxCell id="dSVtmwzIWPI7p82l80rs-67" value="" style="endArrow=classic;html=1;rounded=0;" parent="1" edge="1">
          <mxGeometry width="50" height="50" relative="1" as="geometry">
            <mxPoint x="459.31" y="510" as="sourcePoint" />
            <mxPoint x="459.31" y="600" as="targetPoint" />
          </mxGeometry>
        </mxCell>
        <mxCell id="dSVtmwzIWPI7p82l80rs-69" value="" style="endArrow=classic;html=1;rounded=0;" parent="1" edge="1">
          <mxGeometry width="50" height="50" relative="1" as="geometry">
            <mxPoint x="459.31" y="750" as="sourcePoint" />
            <mxPoint x="460" y="820" as="targetPoint" />
          </mxGeometry>
        </mxCell>
        <mxCell id="2pvVyealhxMmtgX8-E1d-1" value="COUNT_LOGS" style="shape=table;startSize=30;container=1;collapsible=1;childLayout=tableLayout;fixedRows=1;rowLines=0;fontStyle=1;align=center;resizeLast=1;" vertex="1" parent="1">
          <mxGeometry x="80" y="610" width="180" height="150" as="geometry" />
        </mxCell>
        <mxCell id="2pvVyealhxMmtgX8-E1d-2" value="" style="shape=partialRectangle;collapsible=0;dropTarget=0;pointerEvents=0;fillColor=none;points=[[0,0.5],[1,0.5]];portConstraint=eastwest;top=0;left=0;right=0;bottom=1;" vertex="1" parent="2pvVyealhxMmtgX8-E1d-1">
          <mxGeometry y="30" width="180" height="30" as="geometry" />
        </mxCell>
        <mxCell id="2pvVyealhxMmtgX8-E1d-3" value="PK" style="shape=partialRectangle;overflow=hidden;connectable=0;fillColor=none;top=0;left=0;bottom=0;right=0;fontStyle=1;" vertex="1" parent="2pvVyealhxMmtgX8-E1d-2">
          <mxGeometry width="30" height="30" as="geometry">
            <mxRectangle width="30" height="30" as="alternateBounds" />
          </mxGeometry>
        </mxCell>
        <mxCell id="2pvVyealhxMmtgX8-E1d-4" value="ID" style="shape=partialRectangle;overflow=hidden;connectable=0;fillColor=none;top=0;left=0;bottom=0;right=0;align=left;spacingLeft=6;fontStyle=5;" vertex="1" parent="2pvVyealhxMmtgX8-E1d-2">
          <mxGeometry x="30" width="150" height="30" as="geometry">
            <mxRectangle width="150" height="30" as="alternateBounds" />
          </mxGeometry>
        </mxCell>
        <mxCell id="2pvVyealhxMmtgX8-E1d-5" value="" style="shape=partialRectangle;collapsible=0;dropTarget=0;pointerEvents=0;fillColor=none;points=[[0,0.5],[1,0.5]];portConstraint=eastwest;top=0;left=0;right=0;bottom=0;" vertex="1" parent="2pvVyealhxMmtgX8-E1d-1">
          <mxGeometry y="60" width="180" height="30" as="geometry" />
        </mxCell>
        <mxCell id="2pvVyealhxMmtgX8-E1d-6" value="" style="shape=partialRectangle;overflow=hidden;connectable=0;fillColor=none;top=0;left=0;bottom=0;right=0;" vertex="1" parent="2pvVyealhxMmtgX8-E1d-5">
          <mxGeometry width="30" height="30" as="geometry">
            <mxRectangle width="30" height="30" as="alternateBounds" />
          </mxGeometry>
        </mxCell>
        <mxCell id="2pvVyealhxMmtgX8-E1d-7" value="TYPE" style="shape=partialRectangle;overflow=hidden;connectable=0;fillColor=none;top=0;left=0;bottom=0;right=0;align=left;spacingLeft=6;" vertex="1" parent="2pvVyealhxMmtgX8-E1d-5">
          <mxGeometry x="30" width="150" height="30" as="geometry">
            <mxRectangle width="150" height="30" as="alternateBounds" />
          </mxGeometry>
        </mxCell>
        <mxCell id="2pvVyealhxMmtgX8-E1d-8" value="" style="shape=partialRectangle;collapsible=0;dropTarget=0;pointerEvents=0;fillColor=none;points=[[0,0.5],[1,0.5]];portConstraint=eastwest;top=0;left=0;right=0;bottom=0;" vertex="1" parent="2pvVyealhxMmtgX8-E1d-1">
          <mxGeometry y="90" width="180" height="50" as="geometry" />
        </mxCell>
        <mxCell id="2pvVyealhxMmtgX8-E1d-9" value="" style="shape=partialRectangle;overflow=hidden;connectable=0;fillColor=none;top=0;left=0;bottom=0;right=0;" vertex="1" parent="2pvVyealhxMmtgX8-E1d-8">
          <mxGeometry width="30" height="50" as="geometry">
            <mxRectangle width="30" height="50" as="alternateBounds" />
          </mxGeometry>
        </mxCell>
        <mxCell id="2pvVyealhxMmtgX8-E1d-10" value="COUNT_VALUE&#xa;&#xa;CREATED_AT" style="shape=partialRectangle;overflow=hidden;connectable=0;fillColor=none;top=0;left=0;bottom=0;right=0;align=left;spacingLeft=6;" vertex="1" parent="2pvVyealhxMmtgX8-E1d-8">
          <mxGeometry x="30" width="150" height="50" as="geometry">
            <mxRectangle width="150" height="50" as="alternateBounds" />
          </mxGeometry>
        </mxCell>
      </root>
    </mxGraphModel>
  </diagram>
</mxfile>
